<svg width="46" height="43" fill="none" xmlns="http://www.w3.org/2000/svg"><path d="m.167 42.833 29.166-10.416-18.75-18.75L.167 42.833ZM26.27 23.104l11.645-11.646a2.603 2.603 0 0 1 3.688 0l1.23 1.23 2.207-2.209-1.229-1.229c-2.229-2.23-5.875-2.23-8.104 0L24.062 20.896l2.209 2.208Zm-9.313-11.77-1.229 1.229 2.208 2.208 1.23-1.23c2.229-2.229 2.229-5.874 0-8.103l-1.23-1.23-2.208 2.23 1.23 1.229c1 1 1 2.666 0 3.666ZM31.542 21.75l-3.313 3.313 2.208 2.208 3.313-3.313a2.603 2.603 0 0 1 3.687 0l3.355 3.355L43 25.104l-3.354-3.354c-2.25-2.23-5.875-2.23-8.105 0Zm-4.167-12.5-7.48 7.48 2.209 2.207 7.48-7.479c2.228-2.229 2.228-5.875 0-8.104L26.27.042 24.062 2.25l3.313 3.313c1 1.02 1 2.687 0 3.687Z" fill="#28F097"/></svg>